STARTFONT 2.1
COMMENT Originally a BSD vfont.
COMMENT The following isn't probably quite right....
COMMENT FONT -Misc-3270-Medium-R-Normal--14-140-75-75-C-90--1
FONT 3270
SIZE 14 72 72
FONTBOUNDINGBOX 9 14 0 -3
STARTPROPERTIES 17
FONTNAME_REGISTRY ""
FOUNDRY "Misc"
FAMILY_NAME "3270"
WEIGHT_NAME "Medium"
SLANT "R"
PIXEL_SIZE 14
POINT_SIZE 140
RESOLUTION_X 72
RESOLUTION_Y 72
SPACING "C"
CHARSET_REGISTRY ""
CHARSET_ENCODING ""
AVERAGE_WIDTH 90
DEFAULT_CHAR 0
FONT_ASCENT 11
FONT_DESCENT 3
COPYRIGHT "Copyright 1990 Robert Vidyua and Jeff Sparkes."
ENDPROPERTIES
CHARS 256
STARTCHAR <unknown>
ENCODING 0
SWIDTH 562 0
DWIDTH 9 0
BBX 9 14 0 -3
BITMAP
0000
0000
0000
0000
0000
0000
0000
0000
0000
0000
0000
0000
0000
0000
ENDCHAR
STARTCHAR <unknown>
ENCODING 1
SWIDTH 562 0
DWIDTH 9 0
BBX 7 9 1 1
BITMAP
AA
00
00
10
30
10
10
10
10
ENDCHAR
STARTCHAR <unknown>
ENCODING 2
SWIDTH 562 0
DWIDTH 9 0
BBX 7 9 1 1
BITMAP
AA
00
00
30
48
08
10
20
78
ENDCHAR
STARTCHAR <unknown>
ENCODING 3
SWIDTH 562 0
DWIDTH 9 0
BBX 7 9 1 1
BITMAP
AA
00
00
FC
08
18
04
84
78
ENDCHAR
STARTCHAR <unknown>
ENCODING 4
SWIDTH 562 0
DWIDTH 9 0
BBX 7 9 1 1
BITMAP
AA
00
00
28
48
88
FC
08
08
ENDCHAR
STARTCHAR <unknown>
ENCODING 5
SWIDTH 562 0
DWIDTH 9 0
BBX 7 9 1 1
BITMAP
AA
00
00
FC
80
F8
04
04
F8
ENDCHAR
STARTCHAR <unknown>
ENCODING 6
SWIDTH 562 0
DWIDTH 9 0
BBX 7 9 1 1
BITMAP
AA
00
00
40
80
B8
C4
84
78
ENDCHAR
STARTCHAR <unknown>
ENCODING 7
SWIDTH 562 0
DWIDTH 9 0
BBX 7 9 1 1
BITMAP
AA
00
00
FC
08
10
10
20
20
ENDCHAR
STARTCHAR <unknown>
ENCODING 8
SWIDTH 562 0
DWIDTH 9 0
BBX 5 9 2 0
BITMAP
80
40
20
10
08
10
20
40
80
ENDCHAR
STARTCHAR <unknown>
ENCODING 9
SWIDTH 562 0
DWIDTH 9 0
BBX 5 9 2 0
BITMAP
08
10
20
40
80
40
20
10
08
ENDCHAR
STARTCHAR <unknown>
ENCODING 10
SWIDTH 562 0
DWIDTH 9 0
BBX 3 11 3 -1
BITMAP
E0
80
80
80
80
80
80
80
80
80
E0
ENDCHAR
STARTCHAR <unknown>
ENCODING 11
SWIDTH 562 0
DWIDTH 9 0
BBX 3 11 3 -1
BITMAP
E0
20
20
20
20
20
20
20
20
20
E0
ENDCHAR
STARTCHAR <unknown>
ENCODING 12
SWIDTH 562 0
DWIDTH 9 0
BBX 3 9 3 0
BITMAP
80
40
20
20
20
20
20
40
80
ENDCHAR
STARTCHAR <unknown>
ENCODING 13
SWIDTH 562 0
DWIDTH 9 0
BBX 3 9 3 0
BITMAP
20
40
80
80
80
80
80
40
20
ENDCHAR
STARTCHAR <unknown>
ENCODING 14
SWIDTH 562 0
DWIDTH 9 0
BBX 4 11 2 -1
BITMAP
C0
20
20
20
20
10
20
20
20
20
C0
ENDCHAR
STARTCHAR <unknown>
ENCODING 15
SWIDTH 562 0
DWIDTH 9 0
BBX 4 11 2 -1
BITMAP
30
40
40
40
40
80
40
40
40
40
30
ENDCHAR
STARTCHAR <unknown>
ENCODING 16
SWIDTH 562 0
DWIDTH 9 0
BBX 9 14 0 -3
BITMAP
0000
0000
0000
0000
0000
0000
0000
0000
0000
0000
0000
0000
0000
0000
ENDCHAR
STARTCHAR <unknown>
ENCODING 17
SWIDTH 562 0
DWIDTH 9 0
BBX 7 4 1 3
BITMAP
FE
00
00
FE
ENDCHAR
STARTCHAR <unknown>
ENCODING 18
SWIDTH 562 0
DWIDTH 9 0
BBX 1 3 4 7
BITMAP
80
80
80
ENDCHAR
STARTCHAR <unknown>
ENCODING 19
SWIDTH 562 0
DWIDTH 9 0
BBX 4 3 2 7
BITMAP
90
90
90
ENDCHAR
STARTCHAR <unknown>
ENCODING 20
SWIDTH 562 0
DWIDTH 9 0
BBX 7 7 1 1
BITMAP
02
04
08
10
20
40
80
ENDCHAR
STARTCHAR <unknown>
ENCODING 21
SWIDTH 562 0
DWIDTH 9 0
BBX 7 7 1 1
BITMAP
80
40
20
10
08
04
02
ENDCHAR
STARTCHAR <unknown>
ENCODING 22
SWIDTH 562 0
DWIDTH 9 0
BBX 1 13 4 -2
BITMAP
80
80
80
80
80
80
80
80
80
80
80
80
80
ENDCHAR
STARTCHAR <unknown>
ENCODING 23
SWIDTH 562 0
DWIDTH 9 0
BBX 1 12 4 -2
BITMAP
80
80
80
80
80
00
00
80
80
80
80
80
ENDCHAR
STARTCHAR <unknown>
ENCODING 24
SWIDTH 562 0
DWIDTH 9 0
BBX 6 10 2 0
BITMAP
78
84
84
08
10
20
20
00
00
20
ENDCHAR
STARTCHAR <unknown>
ENCODING 25
SWIDTH 562 0
DWIDTH 9 0
BBX 1 10 4 0
BITMAP
80
80
80
80
80
80
80
00
00
80
ENDCHAR
STARTCHAR <unknown>
ENCODING 26
SWIDTH 562 0
DWIDTH 9 0
BBX 7 11 1 -1
BITMAP
10
10
7E
90
90
7C
12
12
FC
10
10
ENDCHAR
STARTCHAR <unknown>
ENCODING 27
SWIDTH 562 0
DWIDTH 9 0
BBX 6 9 1 1
BITMAP
10
10
7C
90
90
90
7C
10
10
ENDCHAR
STARTCHAR <unknown>
ENCODING 28
SWIDTH 562 0
DWIDTH 9 0
BBX 7 10 1 0
BITMAP
18
24
20
20
F8
20
20
20
E2
DC
ENDCHAR
STARTCHAR <unknown>
ENCODING 29
SWIDTH 562 0
DWIDTH 9 0
BBX 7 10 1 0
BITMAP
82
44
28
10
FE
10
10
FE
10
10
ENDCHAR
STARTCHAR <unknown>
ENCODING 30
SWIDTH 562 0
DWIDTH 9 0
BBX 6 11 1 -1
BITMAP
F0
88
88
88
F0
80
88
9C
88
88
08
ENDCHAR
STARTCHAR <unknown>
ENCODING 31
SWIDTH 562 0
DWIDTH 9 0
BBX 7 9 1 0
BITMAP
82
44
38
44
44
44
38
44
82
ENDCHAR
STARTCHAR <unknown>
ENCODING 32
SWIDTH 562 0
DWIDTH 9 0
BBX 7 10 1 0
BITMAP
38
44
82
82
92
92
82
82
44
38
ENDCHAR
STARTCHAR <unknown>
ENCODING 33
SWIDTH 562 0
DWIDTH 9 0
BBX 3 10 2 0
BITMAP
20
60
A0
20
20
20
20
20
20
20
ENDCHAR
STARTCHAR <unknown>
ENCODING 34
SWIDTH 562 0
DWIDTH 9 0
BBX 7 10 1 0
BITMAP
3C
42
82
02
04
08
10
20
40
FE
ENDCHAR
STARTCHAR <unknown>
ENCODING 35
SWIDTH 562 0
DWIDTH 9 0
BBX 7 10 1 0
BITMAP
7E
02
04
08
18
04
02
02
84
78
ENDCHAR
STARTCHAR <unknown>
ENCODING 36
SWIDTH 562 0
DWIDTH 9 0
BBX 7 10 1 0
BITMAP
0C
14
24
44
84
84
FE
04
04
04
ENDCHAR
STARTCHAR <unknown>
ENCODING 37
SWIDTH 562 0
DWIDTH 9 0
BBX 7 10 1 0
BITMAP
FE
80
80
F8
04
02
02
02
04
F8
ENDCHAR
STARTCHAR <unknown>
ENCODING 38
SWIDTH 562 0
DWIDTH 9 0
BBX 7 10 1 0
BITMAP
20
40
80
80
B8
C4
82
82
44
38
ENDCHAR
STARTCHAR <unknown>
ENCODING 39
SWIDTH 562 0
DWIDTH 9 0
BBX 7 10 1 0
BITMAP
FE
02
04
08
10
20
20
20
20
20
ENDCHAR
STARTCHAR <unknown>
ENCODING 40
SWIDTH 562 0
DWIDTH 9 0
BBX 7 10 1 0
BITMAP
38
44
44
44
38
44
82
82
44
38
ENDCHAR
STARTCHAR <unknown>
ENCODING 41
SWIDTH 562 0
DWIDTH 9 0
BBX 7 10 1 0
BITMAP
3C
42
82
86
8A
72
02
02
02
04
ENDCHAR
STARTCHAR <unknown>
ENCODING 42
SWIDTH 562 0
DWIDTH 9 0
BBX 7 10 1 0
BITMAP
30
48
88
90
88
84
82
82
A2
9C
ENDCHAR
STARTCHAR <unknown>
ENCODING 43
SWIDTH 562 0
DWIDTH 9 0
BBX 6 12 1 -2
BITMAP
38
40
40
A0
90
88
44
24
14
08
08
70
ENDCHAR
STARTCHAR <unknown>
ENCODING 44
SWIDTH 562 0
DWIDTH 9 0
BBX 6 6 1 3
BITMAP
48
FC
48
48
FC
48
ENDCHAR
STARTCHAR <unknown>
ENCODING 45
SWIDTH 562 0
DWIDTH 9 0
BBX 7 10 1 0
BITMAP
7C
82
82
9A
AA
BC
80
80
80
7E
ENDCHAR
STARTCHAR <unknown>
ENCODING 46
SWIDTH 562 0
DWIDTH 9 0
BBX 7 11 1 -1
BITMAP
40
A0
42
04
08
10
20
40
84
0A
04
ENDCHAR
STARTCHAR <unknown>
ENCODING 47
SWIDTH 562 0
DWIDTH 9 0
BBX 7 1 1 -1
BITMAP
FE
ENDCHAR
STARTCHAR <unknown>
ENCODING 48
SWIDTH 562 0
DWIDTH 9 0
BBX 7 10 1 -1
BITMAP
60
90
90
90
60
A2
94
88
74
02
ENDCHAR
STARTCHAR <unknown>
ENCODING 49
SWIDTH 562 0
DWIDTH 9 0
BBX 5 1 2 4
BITMAP
F8
ENDCHAR
STARTCHAR <unknown>
ENCODING 50
SWIDTH 562 0
DWIDTH 9 0
BBX 2 2 3 0
BITMAP
C0
C0
ENDCHAR
STARTCHAR <unknown>
ENCODING 51
SWIDTH 562 0
DWIDTH 9 0
BBX 4 4 2 -2
BITMAP
30
30
60
C0
ENDCHAR
STARTCHAR <unknown>
ENCODING 52
SWIDTH 562 0
DWIDTH 9 0
BBX 2 6 3 0
BITMAP
C0
C0
00
00
C0
C0
ENDCHAR
STARTCHAR <unknown>
ENCODING 53
SWIDTH 562 0
DWIDTH 9 0
BBX 7 7 1 1
BITMAP
10
10
10
FE
10
10
10
ENDCHAR
STARTCHAR <unknown>
ENCODING 54
SWIDTH 562 0
DWIDTH 9 0
BBX 7 3 1 6
BITMAP
FE
02
02
ENDCHAR
STARTCHAR <unknown>
ENCODING 55
SWIDTH 562 0
DWIDTH 9 0
BBX 7 1 1 9
BITMAP
FE
ENDCHAR
STARTCHAR <unknown>
ENCODING 56
SWIDTH 562 0
DWIDTH 9 0
BBX 4 4 2 6
BITMAP
60
90
90
60
ENDCHAR
STARTCHAR <unknown>
ENCODING 57
SWIDTH 562 0
DWIDTH 9 0
BBX 5 3 2 7
BITMAP
88
50
20
ENDCHAR
STARTCHAR <unknown>
ENCODING 58
SWIDTH 562 0
DWIDTH 9 0
BBX 5 3 2 7
BITMAP
20
50
88
ENDCHAR
STARTCHAR <unknown>
ENCODING 59
SWIDTH 562 0
DWIDTH 9 0
BBX 7 3 1 7
BITMAP
60
92
0C
ENDCHAR
STARTCHAR <unknown>
ENCODING 60
SWIDTH 562 0
DWIDTH 9 0
BBX 7 2 1 8
BITMAP
C6
C6
ENDCHAR
STARTCHAR <unknown>
ENCODING 61
SWIDTH 562 0
DWIDTH 9 0
BBX 3 3 3 7
BITMAP
80
40
20
ENDCHAR
STARTCHAR <unknown>
ENCODING 62
SWIDTH 562 0
DWIDTH 9 0
BBX 3 3 3 7
BITMAP
20
40
80
ENDCHAR
STARTCHAR <unknown>
ENCODING 63
SWIDTH 562 0
DWIDTH 9 0
BBX 3 4 2 -2
BITMAP
20
20
20
C0
ENDCHAR
STARTCHAR <unknown>
ENCODING 64
SWIDTH 562 0
DWIDTH 9 0
BBX 7 11 1 0
BITMAP
40
20
10
00
78
04
04
7C
84
84
7E
ENDCHAR
STARTCHAR <unknown>
ENCODING 65
SWIDTH 562 0
DWIDTH 9 0
BBX 6 11 1 0
BITMAP
40
20
10
00
78
84
84
FC
80
80
7C
ENDCHAR
STARTCHAR <unknown>
ENCODING 66
SWIDTH 562 0
DWIDTH 9 0
BBX 3 11 3 0
BITMAP
80
40
20
00
00
40
40
40
40
40
40
ENDCHAR
STARTCHAR <unknown>
ENCODING 67
SWIDTH 562 0
DWIDTH 9 0
BBX 6 11 1 0
BITMAP
40
20
10
00
78
84
84
84
84
84
78
ENDCHAR
STARTCHAR <unknown>
ENCODING 68
SWIDTH 562 0
DWIDTH 9 0
BBX 7 11 1 0
BITMAP
40
20
10
00
84
84
84
84
84
84
7A
ENDCHAR
STARTCHAR <unknown>
ENCODING 69
SWIDTH 562 0
DWIDTH 9 0
BBX 7 10 1 0
BITMAP
32
4C
00
78
04
04
7C
84
84
7E
ENDCHAR
STARTCHAR <unknown>
ENCODING 70
SWIDTH 562 0
DWIDTH 9 0
BBX 6 10 1 0
BITMAP
64
98
00
78
84
84
84
84
84
78
ENDCHAR
STARTCHAR <unknown>
ENCODING 71
SWIDTH 562 0
DWIDTH 9 0
BBX 6 13 1 -3
BITMAP
48
00
00
84
84
84
84
44
28
10
20
40
80
ENDCHAR
STARTCHAR <unknown>
ENCODING 72
SWIDTH 562 0
DWIDTH 9 0
BBX 7 11 1 0
BITMAP
40
20
10
00
78
04
04
7C
84
84
7E
ENDCHAR
STARTCHAR <unknown>
ENCODING 73
SWIDTH 562 0
DWIDTH 9 0
BBX 6 11 1 0
BITMAP
40
20
10
00
78
84
84
FC
80
80
7C
ENDCHAR
STARTCHAR <unknown>
ENCODING 74
SWIDTH 562 0
DWIDTH 9 0
BBX 6 11 1 0
BITMAP
04
08
10
00
78
84
84
FC
80
80
7C
ENDCHAR
STARTCHAR <unknown>
ENCODING 75
SWIDTH 562 0
DWIDTH 9 0
BBX 3 11 3 0
BITMAP
80
40
20
00
00
40
40
40
40
40
40
ENDCHAR
STARTCHAR <unknown>
ENCODING 76
SWIDTH 562 0
DWIDTH 9 0
BBX 6 11 1 0
BITMAP
40
20
10
00
78
84
84
84
84
84
78
ENDCHAR
STARTCHAR <unknown>
ENCODING 77
SWIDTH 562 0
DWIDTH 9 0
BBX 7 11 1 0
BITMAP
40
20
10
00
84
84
84
84
84
84
7A
ENDCHAR
STARTCHAR <unknown>
ENCODING 78
SWIDTH 562 0
DWIDTH 9 0
BBX 7 10 1 0
BITMAP
48
00
00
84
84
84
84
84
84
7A
ENDCHAR
STARTCHAR <unknown>
ENCODING 79
SWIDTH 562 0
DWIDTH 9 0
BBX 6 9 1 -2
BITMAP
3C
40
80
80
80
40
3C
10
70
ENDCHAR
STARTCHAR <unknown>
ENCODING 80
SWIDTH 562 0
DWIDTH 9 0
BBX 7 10 1 0
BITMAP
48
00
00
78
04
04
7C
84
84
7E
ENDCHAR
STARTCHAR <unknown>
ENCODING 81
SWIDTH 562 0
DWIDTH 9 0
BBX 6 10 1 0
BITMAP
48
00
00
78
84
84
FC
80
80
7C
ENDCHAR
STARTCHAR <unknown>
ENCODING 82
SWIDTH 562 0
DWIDTH 9 0
BBX 5 10 2 0
BITMAP
88
00
00
20
20
20
20
20
20
20
ENDCHAR
STARTCHAR <unknown>
ENCODING 83
SWIDTH 562 0
DWIDTH 9 0
BBX 6 10 1 0
BITMAP
48
00
00
78
84
84
84
84
84
78
ENDCHAR
STARTCHAR <unknown>
ENCODING 84
SWIDTH 562 0
DWIDTH 9 0
BBX 7 10 1 0
BITMAP
48
00
00
84
84
84
84
84
84
7A
ENDCHAR
STARTCHAR <unknown>
ENCODING 85
SWIDTH 562 0
DWIDTH 9 0
BBX 7 10 1 0
BITMAP
10
28
00
78
04
04
7C
84
84
7E
ENDCHAR
STARTCHAR <unknown>
ENCODING 86
SWIDTH 562 0
DWIDTH 9 0
BBX 6 10 1 0
BITMAP
10
28
00
78
84
84
FC
80
80
7C
ENDCHAR
STARTCHAR <unknown>
ENCODING 87
SWIDTH 562 0
DWIDTH 9 0
BBX 3 10 3 0
BITMAP
40
A0
00
00
40
40
40
40
40
40
ENDCHAR
STARTCHAR <unknown>
ENCODING 88
SWIDTH 562 0
DWIDTH 9 0
BBX 5 10 2 0
BITMAP
20
50
00
70
88
88
88
88
88
70
ENDCHAR
STARTCHAR <unknown>
ENCODING 89
SWIDTH 562 0
DWIDTH 9 0
BBX 6 10 1 0
BITMAP
20
50
00
88
88
88
88
88
88
74
ENDCHAR
STARTCHAR <unknown>
ENCODING 90
SWIDTH 562 0
DWIDTH 9 0
BBX 7 11 1 0
BITMAP
04
08
10
00
78
04
04
7C
84
84
7E
ENDCHAR
STARTCHAR <unknown>
ENCODING 91
SWIDTH 562 0
DWIDTH 9 0
BBX 6 11 1 0
BITMAP
04
08
10
00
78
84
84
FC
80
80
7C
ENDCHAR
STARTCHAR <unknown>
ENCODING 92
SWIDTH 562 0
DWIDTH 9 0
BBX 3 11 3 0
BITMAP
20
40
80
00
00
40
40
40
40
40
40
ENDCHAR
STARTCHAR <unknown>
ENCODING 93
SWIDTH 562 0
DWIDTH 9 0
BBX 6 11 1 0
BITMAP
08
10
20
00
78
84
84
84
84
84
78
ENDCHAR
STARTCHAR <unknown>
ENCODING 94
SWIDTH 562 0
DWIDTH 9 0
BBX 7 11 1 0
BITMAP
08
10
20
00
84
84
84
84
84
84
7A
ENDCHAR
STARTCHAR <unknown>
ENCODING 95
SWIDTH 562 0
DWIDTH 9 0
BBX 7 10 1 0
BITMAP
32
4C
00
BC
42
42
42
42
42
42
ENDCHAR
STARTCHAR <unknown>
ENCODING 96
SWIDTH 562 0
DWIDTH 9 0
BBX 7 11 1 0
BITMAP
10
08
04
10
28
44
82
FE
82
82
82
ENDCHAR
STARTCHAR <unknown>
ENCODING 97
SWIDTH 562 0
DWIDTH 9 0
BBX 7 11 1 0
BITMAP
40
20
10
FE
80
80
F8
80
80
80
FE
ENDCHAR
STARTCHAR <unknown>
ENCODING 98
SWIDTH 562 0
DWIDTH 9 0
BBX 3 11 3 0
BITMAP
80
40
20
00
E0
40
40
40
40
40
E0
ENDCHAR
STARTCHAR <unknown>
ENCODING 99
SWIDTH 562 0
DWIDTH 9 0
BBX 7 11 1 0
BITMAP
40
20
10
7C
82
82
82
82
82
82
7C
ENDCHAR
STARTCHAR <unknown>
ENCODING 100
SWIDTH 562 0
DWIDTH 9 0
BBX 7 11 1 0
BITMAP
40
20
10
82
82
82
82
82
82
82
7C
ENDCHAR
STARTCHAR <unknown>
ENCODING 101
SWIDTH 562 0
DWIDTH 9 0
BBX 7 10 1 0
BITMAP
32
4C
00
10
28
44
82
FE
82
82
ENDCHAR
STARTCHAR <unknown>
ENCODING 102
SWIDTH 562 0
DWIDTH 9 0
BBX 7 11 1 0
BITMAP
32
4C
7C
82
82
82
82
82
82
82
7C
ENDCHAR
STARTCHAR <unknown>
ENCODING 103
SWIDTH 562 0
DWIDTH 9 0
BBX 7 9 1 0
BITMAP
82
44
28
10
10
10
10
10
10
ENDCHAR
STARTCHAR <unknown>
ENCODING 104
SWIDTH 562 0
DWIDTH 9 0
BBX 7 9 1 0
BITMAP
10
28
44
82
82
FE
82
82
82
ENDCHAR
STARTCHAR <unknown>
ENCODING 105
SWIDTH 562 0
DWIDTH 9 0
BBX 7 9 1 0
BITMAP
FE
80
80
80
F8
80
80
80
FE
ENDCHAR
STARTCHAR <unknown>
ENCODING 106
SWIDTH 562 0
DWIDTH 9 0
BBX 7 9 1 0
BITMAP
FE
80
80
80
F8
80
80
80
FE
ENDCHAR
STARTCHAR <unknown>
ENCODING 107
SWIDTH 562 0
DWIDTH 9 0
BBX 3 9 3 0
BITMAP
E0
40
40
40
40
40
40
40
E0
ENDCHAR
STARTCHAR <unknown>
ENCODING 108
SWIDTH 562 0
DWIDTH 9 0
BBX 7 9 1 0
BITMAP
7C
82
82
82
82
82
82
82
7C
ENDCHAR
STARTCHAR <unknown>
ENCODING 109
SWIDTH 562 0
DWIDTH 9 0
BBX 7 9 1 0
BITMAP
82
82
82
82
82
82
82
82
7C
ENDCHAR
STARTCHAR <unknown>
ENCODING 110
SWIDTH 562 0
DWIDTH 9 0
BBX 7 9 1 0
BITMAP
82
44
28
10
10
10
10
10
10
ENDCHAR
STARTCHAR <unknown>
ENCODING 111
SWIDTH 562 0
DWIDTH 9 0
BBX 7 9 1 0
BITMAP
1C
22
40
80
80
80
40
22
1C
ENDCHAR
STARTCHAR <unknown>
ENCODING 112
SWIDTH 562 0
DWIDTH 9 0
BBX 7 11 1 0
BITMAP
44
00
10
28
44
82
82
FE
82
82
82
ENDCHAR
STARTCHAR <unknown>
ENCODING 113
SWIDTH 562 0
DWIDTH 9 0
BBX 7 11 1 0
BITMAP
44
00
FE
80
80
80
F8
80
80
80
FE
ENDCHAR
STARTCHAR <unknown>
ENCODING 114
SWIDTH 562 0
DWIDTH 9 0
BBX 5 11 2 0
BITMAP
88
00
70
20
20
20
20
20
20
20
70
ENDCHAR
STARTCHAR <unknown>
ENCODING 115
SWIDTH 562 0
DWIDTH 9 0
BBX 7 11 1 0
BITMAP
44
00
7C
82
82
82
82
82
82
82
7C
ENDCHAR
STARTCHAR <unknown>
ENCODING 116
SWIDTH 562 0
DWIDTH 9 0
BBX 7 11 1 0
BITMAP
44
00
82
82
82
82
82
82
82
82
7C
ENDCHAR
STARTCHAR <unknown>
ENCODING 117
SWIDTH 562 0
DWIDTH 9 0
BBX 7 11 1 0
BITMAP
10
28
00
10
28
44
82
FE
82
82
82
ENDCHAR
STARTCHAR <unknown>
ENCODING 118
SWIDTH 562 0
DWIDTH 9 0
BBX 7 11 1 0
BITMAP
10
28
00
FE
80
80
80
F8
80
80
FE
ENDCHAR
STARTCHAR <unknown>
ENCODING 119
SWIDTH 562 0
DWIDTH 9 0
BBX 3 11 3 0
BITMAP
40
A0
00
E0
40
40
40
40
40
40
E0
ENDCHAR
STARTCHAR <unknown>
ENCODING 120
SWIDTH 562 0
DWIDTH 9 0
BBX 7 11 1 0
BITMAP
10
28
00
7C
82
82
82
82
82
82
7C
ENDCHAR
STARTCHAR <unknown>
ENCODING 121
SWIDTH 562 0
DWIDTH 9 0
BBX 7 11 1 0
BITMAP
10
28
00
82
82
82
82
82
82
82
7C
ENDCHAR
STARTCHAR <unknown>
ENCODING 122
SWIDTH 562 0
DWIDTH 9 0
BBX 7 11 1 0
BITMAP
10
20
40
10
28
44
82
FE
82
82
82
ENDCHAR
STARTCHAR <unknown>
ENCODING 123
SWIDTH 562 0
DWIDTH 9 0
BBX 7 11 1 0
BITMAP
04
08
10
FE
80
80
80
F8
80
80
FE
ENDCHAR
STARTCHAR <unknown>
ENCODING 124
SWIDTH 562 0
DWIDTH 9 0
BBX 3 11 3 0
BITMAP
20
40
80
00
E0
40
40
40
40
40
E0
ENDCHAR
STARTCHAR <unknown>
ENCODING 125
SWIDTH 562 0
DWIDTH 9 0
BBX 7 11 1 0
BITMAP
04
08
10
7C
82
82
82
82
82
82
7C
ENDCHAR
STARTCHAR <unknown>
ENCODING 126
SWIDTH 562 0
DWIDTH 9 0
BBX 7 11 1 0
BITMAP
04
08
10
82
82
82
82
82
82
82
7C
ENDCHAR
STARTCHAR <unknown>
ENCODING 127
SWIDTH 562 0
DWIDTH 9 0
BBX 7 10 1 0
BITMAP
32
4C
00
82
C2
A2
92
8A
86
82
ENDCHAR
STARTCHAR <unknown>
ENCODING 128
SWIDTH 562 0
DWIDTH 9 0
BBX 7 7 1 0
BITMAP
78
04
04
7C
84
84
7E
ENDCHAR
STARTCHAR <unknown>
ENCODING 129
SWIDTH 562 0
DWIDTH 9 0
BBX 6 10 1 0
BITMAP
80
80
80
F0
88
84
84
84
88
F0
ENDCHAR
STARTCHAR <unknown>
ENCODING 130
SWIDTH 562 0
DWIDTH 9 0
BBX 6 7 1 0
BITMAP
3C
40
80
80
80
40
3C
ENDCHAR
STARTCHAR <unknown>
ENCODING 131
SWIDTH 562 0
DWIDTH 9 0
BBX 6 10 1 0
BITMAP
04
04
04
3C
44
84
84
84
44
3C
ENDCHAR
STARTCHAR <unknown>
ENCODING 132
SWIDTH 562 0
DWIDTH 9 0
BBX 6 7 1 0
BITMAP
78
84
84
FC
80
80
7C
ENDCHAR
STARTCHAR <unknown>
ENCODING 133
SWIDTH 562 0
DWIDTH 9 0
BBX 6 10 1 0
BITMAP
1C
20
20
F8
20
20
20
20
20
20
ENDCHAR
STARTCHAR <unknown>
ENCODING 134
SWIDTH 562 0
DWIDTH 9 0
BBX 7 9 1 -2
BITMAP
3C
42
82
82
46
3A
02
42
3C
ENDCHAR
STARTCHAR <unknown>
ENCODING 135
SWIDTH 562 0
DWIDTH 9 0
BBX 6 10 1 0
BITMAP
80
80
80
B8
C4
84
84
84
84
84
ENDCHAR
STARTCHAR <unknown>
ENCODING 136
SWIDTH 562 0
DWIDTH 9 0
BBX 1 10 4 0
BITMAP
80
00
00
80
80
80
80
80
80
80
ENDCHAR
STARTCHAR <unknown>
ENCODING 137
SWIDTH 562 0
DWIDTH 9 0
BBX 5 12 2 -2
BITMAP
08
00
00
08
08
08
08
08
08
08
88
70
ENDCHAR
STARTCHAR <unknown>
ENCODING 138
SWIDTH 562 0
DWIDTH 9 0
BBX 5 10 2 0
BITMAP
80
80
80
88
90
A0
C0
A0
90
88
ENDCHAR
STARTCHAR <unknown>
ENCODING 139
SWIDTH 562 0
DWIDTH 9 0
BBX 2 10 4 0
BITMAP
80
80
80
80
80
80
80
80
80
C0
ENDCHAR
STARTCHAR <unknown>
ENCODING 140
SWIDTH 562 0
DWIDTH 9 0
BBX 7 7 1 0
BITMAP
6C
92
92
92
92
92
92
ENDCHAR
STARTCHAR <unknown>
ENCODING 141
SWIDTH 562 0
DWIDTH 9 0
BBX 7 7 1 0
BITMAP
BC
42
42
42
42
42
42
ENDCHAR
STARTCHAR <unknown>
ENCODING 142
SWIDTH 562 0
DWIDTH 9 0
BBX 6 7 1 0
BITMAP
78
84
84
84
84
84
78
ENDCHAR
STARTCHAR <unknown>
ENCODING 143
SWIDTH 562 0
DWIDTH 9 0
BBX 6 10 1 -3
BITMAP
F0
88
84
84
84
88
F0
80
80
80
ENDCHAR
STARTCHAR <unknown>
ENCODING 144
SWIDTH 562 0
DWIDTH 9 0
BBX 7 9 1 -2
BITMAP
3C
44
84
84
44
3C
04
04
06
ENDCHAR
STARTCHAR <unknown>
ENCODING 145
SWIDTH 562 0
DWIDTH 9 0
BBX 7 7 1 0
BITMAP
9C
62
40
40
40
40
40
ENDCHAR
STARTCHAR <unknown>
ENCODING 146
SWIDTH 562 0
DWIDTH 9 0
BBX 6 7 1 0
BITMAP
78
84
40
30
08
84
78
ENDCHAR
STARTCHAR <unknown>
ENCODING 147
SWIDTH 562 0
DWIDTH 9 0
BBX 5 10 2 0
BITMAP
20
20
20
F8
20
20
20
20
20
20
ENDCHAR
STARTCHAR <unknown>
ENCODING 148
SWIDTH 562 0
DWIDTH 9 0
BBX 7 7 1 0
BITMAP
84
84
84
84
84
84
7A
ENDCHAR
STARTCHAR <unknown>
ENCODING 149
SWIDTH 562 0
DWIDTH 9 0
BBX 7 7 1 0
BITMAP
82
82
44
44
28
28
10
ENDCHAR
STARTCHAR <unknown>
ENCODING 150
SWIDTH 562 0
DWIDTH 9 0
BBX 7 7 1 0
BITMAP
82
82
82
92
92
AA
44
ENDCHAR
STARTCHAR <unknown>
ENCODING 151
SWIDTH 562 0
DWIDTH 9 0
BBX 7 7 1 0
BITMAP
82
44
28
10
28
44
82
ENDCHAR
STARTCHAR <unknown>
ENCODING 152
SWIDTH 562 0
DWIDTH 9 0
BBX 6 10 1 -3
BITMAP
84
84
84
84
44
28
10
20
40
80
ENDCHAR
STARTCHAR <unknown>
ENCODING 153
SWIDTH 562 0
DWIDTH 9 0
BBX 7 7 1 0
BITMAP
FE
04
08
10
20
40
FE
ENDCHAR
STARTCHAR <unknown>
ENCODING 154
SWIDTH 562 0
DWIDTH 9 0
BBX 7 7 1 0
BITMAP
EC
12
32
5E
90
90
6E
ENDCHAR
STARTCHAR <unknown>
ENCODING 155
SWIDTH 562 0
DWIDTH 9 0
BBX 7 7 1 0
BITMAP
3A
44
4C
54
64
44
B8
ENDCHAR
STARTCHAR <unknown>
ENCODING 156
SWIDTH 562 0
DWIDTH 9 0
BBX 7 10 1 0
BITMAP
38
38
00
78
04
04
7C
84
84
7E
ENDCHAR
STARTCHAR <unknown>
ENCODING 157
SWIDTH 562 0
DWIDTH 9 0
BBX 6 9 1 -2
BITMAP
3C
40
80
80
80
40
3C
10
70
ENDCHAR
STARTCHAR <unknown>
ENCODING 158
SWIDTH 562 0
DWIDTH 9 0
BBX 7 11 1 -1
BITMAP
FE
FE
00
18
18
00
00
18
18
30
60
ENDCHAR
STARTCHAR <unknown>
ENCODING 159
SWIDTH 562 0
DWIDTH 9 0
BBX 7 10 1 0
BITMAP
FE
FE
00
10
92
54
28
54
92
10
ENDCHAR
STARTCHAR <unknown>
ENCODING 160
SWIDTH 562 0
DWIDTH 9 0
BBX 7 9 1 0
BITMAP
10
28
44
82
82
FE
82
82
82
ENDCHAR
STARTCHAR <unknown>
ENCODING 161
SWIDTH 562 0
DWIDTH 9 0
BBX 7 9 1 0
BITMAP
F8
44
42
44
78
44
42
44
F8
ENDCHAR
STARTCHAR <unknown>
ENCODING 162
SWIDTH 562 0
DWIDTH 9 0
BBX 7 9 1 0
BITMAP
1C
22
40
80
80
80
40
22
1C
ENDCHAR
STARTCHAR <unknown>
ENCODING 163
SWIDTH 562 0
DWIDTH 9 0
BBX 7 9 1 0
BITMAP
F8
44
42
42
42
42
42
44
F8
ENDCHAR
STARTCHAR <unknown>
ENCODING 164
SWIDTH 562 0
DWIDTH 9 0
BBX 7 9 1 0
BITMAP
FE
80
80
80
F8
80
80
80
FE
ENDCHAR
STARTCHAR <unknown>
ENCODING 165
SWIDTH 562 0
DWIDTH 9 0
BBX 7 9 1 0
BITMAP
FE
80
80
80
FC
80
80
80
80
ENDCHAR
STARTCHAR <unknown>
ENCODING 166
SWIDTH 562 0
DWIDTH 9 0
BBX 7 9 1 0
BITMAP
38
44
80
80
80
9E
84
44
3C
ENDCHAR
STARTCHAR <unknown>
ENCODING 167
SWIDTH 562 0
DWIDTH 9 0
BBX 7 9 1 0
BITMAP
82
82
82
82
FE
82
82
82
82
ENDCHAR
STARTCHAR <unknown>
ENCODING 168
SWIDTH 562 0
DWIDTH 9 0
BBX 3 9 3 0
BITMAP
E0
40
40
40
40
40
40
40
E0
ENDCHAR
STARTCHAR <unknown>
ENCODING 169
SWIDTH 562 0
DWIDTH 9 0
BBX 6 9 1 0
BITMAP
1C
08
08
08
08
08
88
88
70
ENDCHAR
STARTCHAR <unknown>
ENCODING 170
SWIDTH 562 0
DWIDTH 9 0
BBX 7 9 1 0
BITMAP
82
84
88
90
A0
D0
88
84
82
ENDCHAR
STARTCHAR <unknown>
ENCODING 171
SWIDTH 562 0
DWIDTH 9 0
BBX 7 9 1 0
BITMAP
80
80
80
80
80
80
80
80
FE
ENDCHAR
STARTCHAR <unknown>
ENCODING 172
SWIDTH 562 0
DWIDTH 9 0
BBX 7 9 1 0
BITMAP
82
C6
AA
92
92
82
82
82
82
ENDCHAR
STARTCHAR <unknown>
ENCODING 173
SWIDTH 562 0
DWIDTH 9 0
BBX 7 9 1 0
BITMAP
82
C2
A2
92
8A
86
82
82
82
ENDCHAR
STARTCHAR <unknown>
ENCODING 174
SWIDTH 562 0
DWIDTH 9 0
BBX 7 9 1 0
BITMAP
7C
82
82
82
82
82
82
82
7C
ENDCHAR
STARTCHAR <unknown>
ENCODING 175
SWIDTH 562 0
DWIDTH 9 0
BBX 7 9 1 0
BITMAP
F8
84
82
82
84
F8
80
80
80
ENDCHAR
STARTCHAR <unknown>
ENCODING 176
SWIDTH 562 0
DWIDTH 9 0
BBX 7 11 1 -2
BITMAP
38
44
82
82
82
82
92
54
38
04
02
ENDCHAR
STARTCHAR <unknown>
ENCODING 177
SWIDTH 562 0
DWIDTH 9 0
BBX 7 9 1 0
BITMAP
FC
82
82
82
FC
90
88
84
82
ENDCHAR
STARTCHAR <unknown>
ENCODING 178
SWIDTH 562 0
DWIDTH 9 0
BBX 7 9 1 0
BITMAP
7C
82
80
60
10
0C
02
82
7C
ENDCHAR
STARTCHAR <unknown>
ENCODING 179
SWIDTH 562 0
DWIDTH 9 0
BBX 7 9 1 0
BITMAP
FE
10
10
10
10
10
10
10
10
ENDCHAR
STARTCHAR <unknown>
ENCODING 180
SWIDTH 562 0
DWIDTH 9 0
BBX 7 9 1 0
BITMAP
82
82
82
82
82
82
82
82
7C
ENDCHAR
STARTCHAR <unknown>
ENCODING 181
SWIDTH 562 0
DWIDTH 9 0
BBX 7 9 1 0
BITMAP
82
82
44
44
44
28
28
10
10
ENDCHAR
STARTCHAR <unknown>
ENCODING 182
SWIDTH 562 0
DWIDTH 9 0
BBX 7 9 1 0
BITMAP
82
82
82
82
92
92
92
AA
44
ENDCHAR
STARTCHAR <unknown>
ENCODING 183
SWIDTH 562 0
DWIDTH 9 0
BBX 7 9 1 0
BITMAP
82
82
44
28
10
28
44
82
82
ENDCHAR
STARTCHAR <unknown>
ENCODING 184
SWIDTH 562 0
DWIDTH 9 0
BBX 7 9 1 0
BITMAP
82
44
28
10
10
10
10
10
10
ENDCHAR
STARTCHAR <unknown>
ENCODING 185
SWIDTH 562 0
DWIDTH 9 0
BBX 7 9 1 0
BITMAP
FE
02
04
08
10
20
40
80
FE
ENDCHAR
STARTCHAR <unknown>
ENCODING 186
SWIDTH 562 0
DWIDTH 9 0
BBX 7 9 1 0
BITMAP
1E
28
48
88
8E
F8
88
88
8E
ENDCHAR
STARTCHAR <unknown>
ENCODING 187
SWIDTH 562 0
DWIDTH 9 0
BBX 7 9 1 0
BITMAP
7C
82
86
8A
92
A2
C2
82
7C
ENDCHAR
STARTCHAR <unknown>
ENCODING 188
SWIDTH 562 0
DWIDTH 9 0
BBX 7 11 1 0
BITMAP
38
38
10
28
44
82
82
FE
82
82
82
ENDCHAR
STARTCHAR <unknown>
ENCODING 189
SWIDTH 562 0
DWIDTH 9 0
BBX 7 11 1 -2
BITMAP
1C
22
40
80
80
80
40
22
1C
08
78
ENDCHAR
STARTCHAR <unknown>
ENCODING 190
SWIDTH 562 0
DWIDTH 9 0
BBX 4 8 2 -2
BITMAP
30
30
00
00
30
30
60
C0
ENDCHAR
STARTCHAR <unknown>
ENCODING 191
SWIDTH 562 0
DWIDTH 9 0
BBX 7 7 1 2
BITMAP
10
92
54
28
54
92
10
ENDCHAR
STARTCHAR <unknown>
ENCODING 192
SWIDTH 562 0
DWIDTH 9 0
BBX 9 14 0 -3
BITMAP
0000
0000
0000
0000
0000
0000
0000
0000
0000
0000
0000
0000
0000
0000
ENDCHAR
STARTCHAR <unknown>
ENCODING 193
SWIDTH 562 0
DWIDTH 9 0
BBX 9 14 0 -3
BITMAP
0000
0000
0000
0000
0000
0000
0000
0000
0000
0000
0000
0000
0000
0000
ENDCHAR
STARTCHAR <unknown>
ENCODING 194
SWIDTH 562 0
DWIDTH 9 0
BBX 9 14 0 -3
BITMAP
0000
0000
0000
0000
0000
0000
0000
0000
0000
0000
0000
0000
0000
0000
ENDCHAR
STARTCHAR <unknown>
ENCODING 195
SWIDTH 562 0
DWIDTH 9 0
BBX 9 14 0 -3
BITMAP
0000
0000
0000
0000
0000
0000
0000
0000
0000
0000
0000
0000
0000
0000
ENDCHAR
STARTCHAR <unknown>
ENCODING 196
SWIDTH 562 0
DWIDTH 9 0
BBX 9 14 0 -3
BITMAP
0000
0000
0000
0000
0000
0000
0000
0000
0000
0000
0000
0000
0000
0000
ENDCHAR
STARTCHAR <unknown>
ENCODING 197
SWIDTH 562 0
DWIDTH 9 0
BBX 9 14 0 -3
BITMAP
0000
0000
0000
0000
0000
0000
0000
0000
0000
0000
0000
0000
0000
0000
ENDCHAR
STARTCHAR <unknown>
ENCODING 198
SWIDTH 562 0
DWIDTH 9 0
BBX 9 14 0 -3
BITMAP
0000
0000
0000
0000
0000
0000
0000
0000
0000
0000
0000
0000
0000
0000
ENDCHAR
STARTCHAR <unknown>
ENCODING 199
SWIDTH 562 0
DWIDTH 9 0
BBX 9 14 0 -3
BITMAP
0000
0000
0000
0000
0000
0000
0000
0000
0000
0000
0000
0000
0000
0000
ENDCHAR
STARTCHAR <unknown>
ENCODING 200
SWIDTH 562 0
DWIDTH 9 0
BBX 9 14 0 -3
BITMAP
0000
0000
0000
0000
0000
0000
0000
0000
0000
0000
0000
0000
0000
0000
ENDCHAR
STARTCHAR <unknown>
ENCODING 201
SWIDTH 562 0
DWIDTH 9 0
BBX 9 14 0 -3
BITMAP
0000
0000
0000
0000
0000
0000
0000
0000
0000
0000
0000
0000
0000
0000
ENDCHAR
STARTCHAR <unknown>
ENCODING 202
SWIDTH 562 0
DWIDTH 9 0
BBX 9 14 0 -3
BITMAP
0000
0000
0000
0000
0000
0000
0000
0000
0000
0000
0000
0000
0000
0000
ENDCHAR
STARTCHAR <unknown>
ENCODING 203
SWIDTH 562 0
DWIDTH 9 0
BBX 9 14 0 -3
BITMAP
0000
0000
0000
0000
0000
0000
0000
0000
0000
0000
0000
0000
0000
0000
ENDCHAR
STARTCHAR <unknown>
ENCODING 204
SWIDTH 562 0
DWIDTH 9 0
BBX 9 14 0 -3
BITMAP
0000
0000
0000
0000
0000
0000
0000
0000
0000
0000
0000
0000
0000
0000
ENDCHAR
STARTCHAR <unknown>
ENCODING 205
SWIDTH 562 0
DWIDTH 9 0
BBX 9 14 0 -3
BITMAP
0000
0000
0000
0000
0000
0000
0000
0000
0000
0000
0000
0000
0000
0000
ENDCHAR
STARTCHAR <unknown>
ENCODING 206
SWIDTH 562 0
DWIDTH 9 0
BBX 9 14 0 -3
BITMAP
0000
0000
0000
0000
0000
0000
0000
0000
0000
0000
0000
0000
0000
0000
ENDCHAR
STARTCHAR <unknown>
ENCODING 207
SWIDTH 562 0
DWIDTH 9 0
BBX 9 14 0 -3
BITMAP
0000
0000
0000
0000
0000
0000
0000
0000
0000
0000
0000
0000
0000
0000
ENDCHAR
STARTCHAR <unknown>
ENCODING 208
SWIDTH 562 0
DWIDTH 9 0
BBX 7 9 1 0
BITMAP
F8
84
82
82
84
F8
80
80
80
ENDCHAR
STARTCHAR <unknown>
ENCODING 209
SWIDTH 562 0
DWIDTH 9 0
BBX 7 9 1 0
BITMAP
7C
82
80
60
10
0C
02
82
7C
ENDCHAR
STARTCHAR <unknown>
ENCODING 210
SWIDTH 562 0
DWIDTH 9 0
BBX 9 12 0 -1
BITMAP
2000
5000
8800
8800
F800
8800
8800
0000
FF80
8080
8080
FF80
ENDCHAR
STARTCHAR <unknown>
ENCODING 211
SWIDTH 562 0
DWIDTH 9 0
BBX 9 7 0 0
BITMAP
0800
1C00
3E00
7700
E380
C180
8080
ENDCHAR
STARTCHAR <unknown>
ENCODING 212
SWIDTH 562 0
DWIDTH 9 0
BBX 9 12 0 -1
BITMAP
0F00
0480
0480
0700
0480
0480
0F00
0000
FF80
8080
8080
FF80
ENDCHAR
STARTCHAR <unknown>
ENCODING 213
SWIDTH 562 0
DWIDTH 9 0
BBX 9 11 0 -2
BITMAP
FF80
8080
9080
A080
A080
AC80
B280
A280
9C80
8080
FF80
ENDCHAR
STARTCHAR <unknown>
ENCODING 214
SWIDTH 562 0
DWIDTH 9 0
BBX 6 12 2 -1
BITMAP
80
C0
E0
F0
F8
F8
FC
F8
F0
E0
C0
80
ENDCHAR
STARTCHAR <unknown>
ENCODING 215
SWIDTH 562 0
DWIDTH 9 0
BBX 9 5 0 2
BITMAP
FF80
8080
8080
8080
FF80
ENDCHAR
STARTCHAR <unknown>
ENCODING 216
SWIDTH 562 0
DWIDTH 9 0
BBX 8 5 0 2
BITMAP
04
06
FF
06
04
ENDCHAR
STARTCHAR <unknown>
ENCODING 217
SWIDTH 562 0
DWIDTH 9 0
BBX 9 11 0 -1
BITMAP
8000
C000
6000
FF80
B880
9C80
8E80
FF80
0300
0180
0080
ENDCHAR
STARTCHAR <unknown>
ENCODING 218
SWIDTH 562 0
DWIDTH 9 0
BBX 7 11 1 -1
BITMAP
10
28
44
82
EE
28
28
28
28
28
38
ENDCHAR
STARTCHAR <unknown>
ENCODING 219
SWIDTH 562 0
DWIDTH 9 0
BBX 7 10 1 0
BITMAP
38
28
38
10
FE
10
10
28
44
82
ENDCHAR
STARTCHAR <unknown>
ENCODING 220
SWIDTH 562 0
DWIDTH 9 0
BBX 9 9 0 2
BITMAP
3C00
1200
1200
1C00
1200
1200
3C00
0000
FF80
ENDCHAR
STARTCHAR <unknown>
ENCODING 221
SWIDTH 562 0
DWIDTH 9 0
BBX 7 11 1 -1
BITMAP
38
28
28
28
28
28
EE
82
44
28
10
ENDCHAR
STARTCHAR <unknown>
ENCODING 222
SWIDTH 562 0
DWIDTH 9 0
BBX 9 13 0 -2
BITMAP
FF80
8080
9C80
A280
A280
8280
8480
8880
8880
8080
8880
8080
FF80
ENDCHAR
STARTCHAR <unknown>
ENCODING 223
SWIDTH 562 0
DWIDTH 9 0
BBX 9 13 0 -2
BITMAP
FF80
FF80
FF80
FF80
FF80
FF80
FF80
FF80
FF80
FF80
FF80
FF80
FF80
ENDCHAR
STARTCHAR <unknown>
ENCODING 224
SWIDTH 562 0
DWIDTH 9 0
BBX 9 14 0 -3
BITMAP
0000
0000
0000
0000
0000
0000
0000
0000
0000
0000
0000
0000
0000
0000
ENDCHAR
STARTCHAR <unknown>
ENCODING 225
SWIDTH 562 0
DWIDTH 9 0
BBX 9 14 0 -3
BITMAP
0000
0000
0000
0000
0000
0000
0000
0000
0000
0000
0000
0000
0000
0000
ENDCHAR
STARTCHAR <unknown>
ENCODING 226
SWIDTH 562 0
DWIDTH 9 0
BBX 9 14 0 -3
BITMAP
0000
0000
0000
0000
0000
0000
0000
0000
0000
0000
0000
0000
0000
0000
ENDCHAR
STARTCHAR <unknown>
ENCODING 227
SWIDTH 562 0
DWIDTH 9 0
BBX 9 14 0 -3
BITMAP
0000
0000
0000
0000
0000
0000
0000
0000
0000
0000
0000
0000
0000
0000
ENDCHAR
STARTCHAR <unknown>
ENCODING 228
SWIDTH 562 0
DWIDTH 9 0
BBX 9 14 0 -3
BITMAP
0000
0000
0000
0000
0000
0000
0000
0000
0000
0000
0000
0000
0000
0000
ENDCHAR
STARTCHAR <unknown>
ENCODING 229
SWIDTH 562 0
DWIDTH 9 0
BBX 9 14 0 -3
BITMAP
0000
0000
0000
0000
0000
0000
0000
0000
0000
0000
0000
0000
0000
0000
ENDCHAR
STARTCHAR <unknown>
ENCODING 230
SWIDTH 562 0
DWIDTH 9 0
BBX 9 14 0 -3
BITMAP
0000
0000
0000
0000
0000
0000
0000
0000
0000
0000
0000
0000
0000
0000
ENDCHAR
STARTCHAR <unknown>
ENCODING 231
SWIDTH 562 0
DWIDTH 9 0
BBX 9 14 0 -3
BITMAP
0000
0000
0000
0000
0000
0000
0000
0000
0000
0000
0000
0000
0000
0000
ENDCHAR
STARTCHAR <unknown>
ENCODING 232
SWIDTH 562 0
DWIDTH 9 0
BBX 9 14 0 -3
BITMAP
0000
0000
0000
0000
0000
0000
0000
0000
0000
0000
0000
0000
0000
0000
ENDCHAR
STARTCHAR <unknown>
ENCODING 233
SWIDTH 562 0
DWIDTH 9 0
BBX 9 14 0 -3
BITMAP
0000
0000
0000
0000
0000
0000
0000
0000
0000
0000
0000
0000
0000
0000
ENDCHAR
STARTCHAR <unknown>
ENCODING 234
SWIDTH 562 0
DWIDTH 9 0
BBX 9 14 0 -3
BITMAP
0000
0000
0000
0000
0000
0000
0000
0000
0000
0000
0000
0000
0000
0000
ENDCHAR
STARTCHAR <unknown>
ENCODING 235
SWIDTH 562 0
DWIDTH 9 0
BBX 9 14 0 -3
BITMAP
0000
0000
0000
0000
0000
0000
0000
0000
0000
0000
0000
0000
0000
0000
ENDCHAR
STARTCHAR <unknown>
ENCODING 236
SWIDTH 562 0
DWIDTH 9 0
BBX 9 14 0 -3
BITMAP
0000
0000
0000
0000
0000
0000
0000
0000
0000
0000
0000
0000
0000
0000
ENDCHAR
STARTCHAR <unknown>
ENCODING 237
SWIDTH 562 0
DWIDTH 9 0
BBX 9 14 0 -3
BITMAP
0000
0000
0000
0000
0000
0000
0000
0000
0000
0000
0000
0000
0000
0000
ENDCHAR
STARTCHAR <unknown>
ENCODING 238
SWIDTH 562 0
DWIDTH 9 0
BBX 9 14 0 -3
BITMAP
0000
0000
0000
0000
0000
0000
0000
0000
0000
0000
0000
0000
0000
0000
ENDCHAR
STARTCHAR <unknown>
ENCODING 239
SWIDTH 562 0
DWIDTH 9 0
BBX 9 14 0 -3
BITMAP
0000
0000
0000
0000
0000
0000
0000
0000
0000
0000
0000
0000
0000
0000
ENDCHAR
STARTCHAR <unknown>
ENCODING 240
SWIDTH 562 0
DWIDTH 9 0
BBX 9 11 0 -1
BITMAP
8000
C000
E000
7000
3800
FF80
0E00
0700
0380
0180
0080
ENDCHAR
STARTCHAR <unknown>
ENCODING 241
SWIDTH 562 0
DWIDTH 9 0
BBX 9 1 0 4
BITMAP
FF80
ENDCHAR
STARTCHAR <unknown>
ENCODING 242
SWIDTH 562 0
DWIDTH 9 0
BBX 9 5 0 0
BITMAP
FC00
0800
1000
2000
7F80
ENDCHAR
STARTCHAR <unknown>
ENCODING 243
SWIDTH 562 0
DWIDTH 9 0
BBX 9 1 0 0
BITMAP
FF80
ENDCHAR
STARTCHAR <unknown>
ENCODING 244
SWIDTH 562 0
DWIDTH 9 0
BBX 8 13 1 -3
BITMAP
02
10
00
40
00
01
82
02
02
42
02
10
02
ENDCHAR
STARTCHAR <unknown>
ENCODING 245
SWIDTH 562 0
DWIDTH 9 0
BBX 6 11 0 -1
BITMAP
20
00
28
40
80
04
00
00
08
00
20
ENDCHAR
STARTCHAR <unknown>
ENCODING 246
SWIDTH 562 0
DWIDTH 9 0
BBX 9 12 0 -1
BITMAP
8080
C180
E380
F780
7F00
3E00
3E00
7F00
F780
E380
C180
8080
ENDCHAR
STARTCHAR <unknown>
ENCODING 247
SWIDTH 562 0
DWIDTH 9 0
BBX 9 5 0 2
BITMAP
FF80
FF80
FF80
FF80
FF80
ENDCHAR
STARTCHAR <unknown>
ENCODING 248
SWIDTH 562 0
DWIDTH 9 0
BBX 8 5 1 2
BITMAP
20
60
FF
60
20
ENDCHAR
STARTCHAR <unknown>
ENCODING 249
SWIDTH 562 0
DWIDTH 9 0
BBX 9 11 0 -1
BITMAP
8000
C000
6000
FF80
FF80
FF80
FF80
FF80
0300
0180
0080
ENDCHAR
STARTCHAR <unknown>
ENCODING 250
SWIDTH 562 0
DWIDTH 9 0
BBX 6 5 3 3
BITMAP
70
88
8C
88
70
ENDCHAR
STARTCHAR <unknown>
ENCODING 251
SWIDTH 562 0
DWIDTH 9 0
BBX 9 4 0 2
BITMAP
FF80
1D80
1D80
0180
ENDCHAR
STARTCHAR <unknown>
ENCODING 252
SWIDTH 562 0
DWIDTH 9 0
BBX 9 11 0 -2
BITMAP
FF80
8080
8480
8C80
9480
A480
BE80
8480
8480
8080
FF80
ENDCHAR
STARTCHAR <unknown>
ENCODING 253
SWIDTH 562 0
DWIDTH 9 0
BBX 9 9 0 2
BITMAP
0800
1400
2200
2200
3E00
2200
2200
0000
FF80
ENDCHAR
STARTCHAR <unknown>
ENCODING 254
SWIDTH 562 0
DWIDTH 9 0
BBX 9 7 0 1
BITMAP
FF80
8080
8080
8080
FF80
8080
FF80
ENDCHAR
STARTCHAR <unknown>
ENCODING 255
SWIDTH 562 0
DWIDTH 9 0
BBX 9 13 0 -2
BITMAP
FF80
8080
9C80
9480
9C80
8880
FF80
8880
8880
9480
A280
C180
FF80
ENDCHAR
ENDFONT
